<svg width="966" height="46" viewBox="0 0 966 46" fill="none" xmlns="http://www.w3.org/2000/svg">
<path d="M3 20L2.62268e-07 20L-2.62268e-07 26L3 26L3 20ZM965.121 25.1214C966.293 23.9498 966.293 22.0503 965.121 20.8788L946.029 1.78688C944.858 0.615305 942.958 0.615305 941.787 1.78688C940.615 2.95845 940.615 4.85795 941.787 6.02952L958.757 23.0001L941.787 39.9706C940.615 41.1422 940.615 43.0417 941.787 44.2133C942.958 45.3849 944.858 45.3849 946.029 44.2133L965.121 25.1214ZM3 26L963 26.0001L963 20.0001L3 20L3 26Z" fill="black"/>
</svg>
